<svg id="Camada_1" data-name="Camada 1" xmlns="http://www.w3.org/2000/svg" xmlns:xlink="http://www.w3.org/1999/xlink" viewBox="0 0 1174.77 135.62"><defs><style>.cls-1{fill:#fff;}.cls-2{isolation:isolate;}</style></defs><path class="cls-1" d="M5.1,134.25,12,110.11H0V97.92H15.43l4.23-14.43H6.22V71.29H23.14L30,47.15H45.42L38.57,71.29h18.8l6.85-24.14H79.37L72.52,71.29H84.59v12.2H69.06L64.83,97.92H78.37v12.19h-17l-6.84,24.14H39.37l6.84-24.14H27.37l-6.84,24.14ZM30.86,97.92H49.65l4.23-14.43H35.09Z"/><path class="cls-1" d="M185,90.7a43.35,43.35,0,0,1-3.61,17.61A44.36,44.36,0,0,1,157,132.14a48.84,48.84,0,0,1-36.21,0,44.36,44.36,0,0,1-24.39-23.83,44.85,44.85,0,0,1,0-35.21,44.36,44.36,0,0,1,24.39-23.83,48.74,48.74,0,0,1,36.21,0A44.36,44.36,0,0,1,181.42,73.1,43.33,43.33,0,0,1,185,90.7Zm-18.54,0a29.34,29.34,0,0,0-2.12-11.26,28.14,28.14,0,0,0-5.78-9,26.61,26.61,0,0,0-8.78-6,27.62,27.62,0,0,0-10.95-2.18A27.12,27.12,0,0,0,128,64.44a26.62,26.62,0,0,0-8.71,6,28,28,0,0,0-5.79,9,31,31,0,0,0,0,22.46,27.73,27.73,0,0,0,5.79,9,26.83,26.83,0,0,0,8.71,6,27.28,27.28,0,0,0,10.88,2.17,27.61,27.61,0,0,0,10.95-2.17,26.61,26.61,0,0,0,8.78-6,27.87,27.87,0,0,0,5.78-9A29.41,29.41,0,0,0,166.49,90.7Z"/><path class="cls-1" d="M197.37,134.25V47.15H241A33,33,0,0,1,252.8,49.2a27.85,27.85,0,0,1,9.27,5.67,25.55,25.55,0,0,1,6,8.64,27.52,27.52,0,0,1,2.18,11,26.19,26.19,0,0,1-2.18,10.76A25.51,25.51,0,0,1,262,93.79a27.67,27.67,0,0,1-9.27,5.6,33.33,33.33,0,0,1-11.7,2H215.37v32.85Zm41.68-71.54H215.37V86.47H239a13.42,13.42,0,0,0,9.39-3.23A11,11,0,0,0,252,74.65,11.25,11.25,0,0,0,248.4,66,13.25,13.25,0,0,0,239,62.71Z"/><path class="cls-1" d="M282.08,134.25V47.15h67V62.81h-48.9V82.72h32.19V97.9H300.13v20.66h49.39v15.67Z"/><path class="cls-1" d="M362.37,47.15h17.17l43.3,56.37V47.15h16.93v87.1h-16L379.37,76v58.23h-17Z"/><path class="cls-1" d="M455.54,134.25V47.15h66.94V62.81h-48.9V82.72h32.23V97.9H473.58v20.66H523v15.67Z"/><path class="cls-1" d="M535.79,134.25V47.15h33.48a48.63,48.63,0,0,1,18.16,3.36,45.15,45.15,0,0,1,14.62,9.21A43,43,0,0,1,615.31,91a41.38,41.38,0,0,1-3.55,17,42.09,42.09,0,0,1-9.71,13.75,45.62,45.62,0,0,1-14.62,9.14,48.63,48.63,0,0,1-18.16,3.36Zm33.35-71h-15.3v55h15.3a27.74,27.74,0,0,0,19.54-7.9,26.68,26.68,0,0,0,5.85-8.65A27.12,27.12,0,0,0,596.64,91a28.35,28.35,0,0,0-2.11-11,26.75,26.75,0,0,0-14.62-14.68,27.62,27.62,0,0,0-10.77-2.12Z"/><path class="cls-1" d="M703.37,96.55a45.38,45.38,0,0,1-2.74,16.11,33.25,33.25,0,0,1-20,20.1,47.69,47.69,0,0,1-31.85,0A33.49,33.49,0,0,1,636.65,125a34.65,34.65,0,0,1-7.72-12.25,45.53,45.53,0,0,1-2.73-16.18V47.15h18v49.4q0,10.08,5.66,16.18t15,6.09q9.33,0,14.87-6.09t5.64-16.18V47.15h18Z"/><path class="cls-1" d="M761.37,118.81A29.27,29.27,0,0,0,774.18,116a32.25,32.25,0,0,0,10.58-8.21l11.82,11.7a44.39,44.39,0,0,1-15.87,11.69,48.54,48.54,0,0,1-38.19.87,46.28,46.28,0,0,1-14.75-9.45A43,43,0,0,1,718,108.36a44.68,44.68,0,0,1,9.89-49.65,46.45,46.45,0,0,1,14.75-9.45,47.74,47.74,0,0,1,18.25-3.45,49.1,49.1,0,0,1,20.28,4.42A43,43,0,0,1,797.1,62.11L784.9,74.18a31.75,31.75,0,0,0-10.82-8.77,29.71,29.71,0,0,0-13.19-3,28,28,0,0,0-11,2.18,26.9,26.9,0,0,0-8.9,6,27.52,27.52,0,0,0-5.85,9A29.51,29.51,0,0,0,733,90.8a28.47,28.47,0,0,0,2.16,11,26.9,26.9,0,0,0,6,8.9,28.4,28.4,0,0,0,9,5.91A28.75,28.75,0,0,0,761.37,118.81Z"/><path class="cls-1" d="M798.84,134.25l35.83-87.1h20.91l35.34,87.1H871.37l-8.83-22.89h-36l-9,22.89Zm33.35-37.33h24.88L844.75,64.81Z"/><path class="cls-1" d="M875.61,63.08V47.15h76.65V63.08H923v71.17H905V63.08Z"/><path class="cls-1" d="M962.37,134.25V47.15h18v87.1Z"/><path class="cls-1" d="M1085,90.7a43.71,43.71,0,0,1-3.61,17.61A44.36,44.36,0,0,1,1057,132.14a48.84,48.84,0,0,1-36.21,0,44.65,44.65,0,0,1,0-82.87,48.74,48.74,0,0,1,36.21,0,44.36,44.36,0,0,1,24.39,23.83A43.67,43.67,0,0,1,1085,90.7Zm-18.54,0a29.34,29.34,0,0,0-2.12-11.26,28.14,28.14,0,0,0-5.78-9,26.61,26.61,0,0,0-8.78-6,27.69,27.69,0,0,0-11-2.18,27.16,27.16,0,0,0-10.89,2.18,26.83,26.83,0,0,0-8.71,6,28.14,28.14,0,0,0-5.78,9,30.77,30.77,0,0,0,0,22.46,27.87,27.87,0,0,0,5.78,9,27,27,0,0,0,19.6,8.15,27.51,27.51,0,0,0,11-2.17,26.71,26.71,0,0,0,8.78-6,27.87,27.87,0,0,0,5.78-9A29.7,29.7,0,0,0,1066.49,90.7Z"/><path class="cls-1" d="M1097.37,47.15h17.18l43.3,56.37V47.15h16.92v87.1h-15.93L1114.37,76v58.23h-17Z"/><image class="cls-2" width="500" height="349" transform="translate(74.01) scale(0.26)" xlink:href="chapeu-red.png"/></svg>